# xmcd
#
# Track frame offsets: 
#        150
#        3246
#        12995
#        27908
#        43662
#        53966
#        69661
#        87902
#        105321
#        123608
#        144267
#        168111
#        186614
#        197673
#        215011
#        234561
#        251901
#        268791
#        292774
#        311313
#        329295
#
# Disc length: 4539 seconds
#
# Revision: 1
# Processed by: cddbd v1.5.2PL0 Copyright (c) Steve Scherf et al.
# Submitted via: ExactAudioCopyFreeDBPlugin 1.0
#
DISCID=2b11b915
DTITLE=Huge L - Touché
DYEAR=2008
DGENRE=Rap
TTITLE0=Intro
TTITLE1=23 Tuntia
TTITLE2=Maailmanlaidallaan
TTITLE3=Touché
TTITLE4=Se Menee Näin
TTITLE5=Ns Tyly
TTITLE6=Ränsistynyt Talo
TTITLE7=Matka Mun Kengissä
TTITLE8=Vaik Ois
TTITLE9=Muut Oksia
TTITLE10=Pystyä Voi (feat. Asa and Davo)
TTITLE11=Tekotaidetta
TTITLE12=Lakoninen
TTITLE13=Jos Mul Ois Milj000000na
TTITLE14=Pelinappuloita (feat. Pyhimys)
TTITLE15=Luontoäiti
TTITLE16=Ristiriita
TTITLE17=Varmageddon (feat. Pyhimys, Tommishock and Armomurha)
TTITLE18=Sävyjä (feat. Tommishock)
TTITLE19=Oon Nähnyt
TTITLE20=Kielimuuri
EXTD=
EXTT0=
EXTT1=
EXTT2=
EXTT3=
EXTT4=
EXTT5=
EXTT6=
EXTT7=
EXTT8=
EXTT9=
EXTT10=
EXTT11=
EXTT12=
EXTT13=
EXTT14=
EXTT15=
EXTT16=
EXTT17=
EXTT18=
EXTT19=
EXTT20=
PLAYORDER=
